<?xml version="1.0" encoding="utf-8"?>
<!-- Generator: Adobe Illustrator 27.2.0, SVG Export Plug-In . SVG Version: 6.00 Build 0)  -->
<svg version="1.1" id="Capa_1" xmlns="http://www.w3.org/2000/svg" xmlns:xlink="http://www.w3.org/1999/xlink" x="0px" y="0px"
	 viewBox="0 0 320.57 180.97" style="enable-background:new 0 0 320.57 180.97;" xml:space="preserve">
<style type="text/css">
	.st0{stroke:#000000;stroke-miterlimit:10;}
	.st1{fill:#D1D0D1;}
	.st2{fill:#121211;}
	.st3{fill:#303030;}
	.st4{fill:#CFCFCE;}
	.st5{fill:#1E1E1E;}
	.st6{fill:#AEAEAE;}
	.st7{fill:#20201F;}
	.st8{fill:#333333;}
	.st9{fill:#A3A3A2;}
	.st10{fill:#878888;}
	.st11{fill:#868787;}
	.st12{fill:#2C2C2C;}
	.st13{fill:#313231;}
	.st14{fill:#626362;}
	.st15{fill:#3E3E3E;}
	.st16{fill:#E2E2E2;}
	.st17{fill:#5F5F5F;}
	.st18{fill:#C4C3C3;}
	.st19{fill:#C9C9C8;}
	.st20{fill:#E2E1E1;}
	.st21{fill:#5C5C5C;}
	.st22{fill:#9F9F9F;}
	.st23{fill:#B1B0B0;}
	.st24{fill:#D1D0D0;}
	.st25{fill:#B0B0AF;}
	.st26{fill:#5E5E5D;}
	.st27{fill:#828383;}
	.st28{fill:#DEDEDE;}
	.st29{fill:#838383;}
	.st30{fill:#616161;}
	.st31{fill:#D2D2D2;}
	.st32{fill:#E1E0E0;}
	.st33{fill:#252525;}
	.st34{fill:#383838;}
	.st35{fill:#3A3A3A;}
	.st36{fill:#B7B7B7;}
	.st37{fill:#666666;}
	.st38{fill:#434343;}
	.st39{fill:#686867;}
	.st40{fill:#656565;}
	.st41{fill:#404040;}
	.st42{fill:#DADAD9;}
	.st43{fill:#DFDFDE;}
	.st44{fill:#606060;}
	.st45{fill:#A0A0A0;}
	.st46{fill:#8D8D8D;}
	.st47{fill:#474747;}
	.st48{fill:#676767;}
	.st49{fill:#C3C3C2;}
	.st50{fill:#6F706F;}
	.st51{fill:#BFBEBF;}
	.st52{fill:#FFF9E6;}
	.st53{fill:#2F3030;}
	.st54{fill:#FFF9E5;}
	.st55{fill:#C8C8C8;}
	.st56{fill:#FFF7E1;}
	.st57{fill:#FFF6E3;}
	.st58{fill:#F7CF9F;}
	.st59{fill:#F5D0A9;}
	.st60{fill:#B6B6B6;}
	.st61{fill:#D8D8D7;}
	.st62{fill:#D5D5D5;}
	.st63{fill:#323232;}
	.st64{fill:#E19F58;}
	.st65{fill:#ECBA82;}
	.st66{fill:#FADBAD;}
	.st67{fill:#E8C793;}
	.st68{fill:#E5A659;}
</style>
<g>
	<g>
		<path class="st0" d="M152.85,95.14c-1.08-0.05-2.15-0.22-3.24-0.22c-13.21,0.01-26.43,0.01-39.64,0.01c-0.65,0-1.31-0.1-1.94,0.15
			c-0.72,0.99-0.15,2.1-0.34,3.15c0.61,2.01,2.44,2.59,4.22,3.2c0.82,0.28,1.7,0.41,2.05,1.31c0.33,1.2,0.97,2.35,0.59,3.65
			c-0.37,0.54-0.71,1.12-1.3,1.5c-0.16,0.12-0.33,0.23-0.5,0.34c-0.91,0.33-1.2-0.35-1.6-0.88c-0.06-0.12-0.12-0.25-0.18-0.37
			c-0.2-0.54-0.07-1.14-0.38-1.66c-0.14-0.19-0.32-0.35-0.53-0.47c-0.5-0.18-0.91-0.5-1.34-0.78c-0.49-0.32-0.97-0.47-1.22,0.26
			c0.02,1.96-0.58,3.95,0.38,5.85c0.75,0.42,1.58,0.28,2.38,0.28c7.52,0.05,15.05-0.07,22.58,0.06c1.18,0.52,0.67,1.25,0.29,1.96
			c-0.81,5.4-2.68,10.39-5.78,15.04c-4.64,6.94-10.85,12.22-18.32,16.27c-1.01,0.55-2.09,1.01-3.33,1.37c0-0.04,0-0.08,0-0.12
			c-0.41,0.27-0.82,0.53-1.22,0.8c0.66,5.47,0.67,10.99,1.03,16.48c1.71-0.22,3.26-0.95,4.87-1.46c7.45-2.38,14.13-6.1,19.99-10.99
			c7.12-5.94,12.71-13.01,16.49-21.31c3.15-6.92,5.27-14.06,5.78-21.6c0.45-0.63,0.15-1.39,0.42-2.05c0.01-0.83,0-1.66,0.01-2.49
			c0.24-1.75,0.18-3.51,0.15-5.27C153.2,96.47,153.46,95.72,152.85,95.14z"/>
		<path class="st0" d="M308.11,96.73c0-0.79,0-1.59,0-2.38c-0.02-0.7,0.04-1.39-0.04-2.09c-0.26-0.64,0.08-1.4-0.43-1.99
			c-0.02-0.5-0.05-1-0.07-1.5c-0.32-0.7,0.1-1.49-0.26-2.18c-0.02-0.81-0.15-1.59-0.31-2.39c-1.2-6.02-3.12-11.8-5.85-17.39
			c-3.71-7.58-8.75-14.27-14.91-20.18c-3.33-3.2-7.07-5.97-11.06-8.45c-6.55-4.08-13.57-7.17-21.12-9.16
			c-4.46-1.17-8.95-2.21-13.63-2.19c-0.46-0.4-1.08-0.2-1.61-0.37c-0.16-0.05-0.32-0.07-0.49-0.06c-0.52,0-1.04,0-1.56,0
			c-1.58,0-3.15,0-4.73,0c-0.55,0-1.1,0-1.65,0c-0.18,0-0.36,0.02-0.54,0.07c-0.95,0.23-1.94,0.16-2.89,0.37
			c-0.95,0.08-1.9,0.17-2.85,0.28c-4.14,0.48-8.18,1.29-12.13,2.52c-4.83,1.5-9.59,3.23-13.94,5.7c-7.04,3.98-13.44,8.72-18.91,14.6
			c-5.75,6.18-10.18,13.06-13.44,20.62c-2.34,5.44-3.94,11.11-4.57,16.99c0.13,0.66,0.38,1.34-0.33,1.87c0,0.19,0.01,0.39,0.01,0.58
			c0.24,0.98,0.09,1.96-0.05,2.94c-0.01,1.65,0,3.3,0,4.95c-0.02,0.88,0.38,1.75,0.05,2.64c0,0.3,0,0.6-0.01,0.9
			c0.33,0.69,0.57,1.4,0.33,2.16c-0.02,0.36-0.12,0.73-0.04,1.07c0.74,3.4,1.26,6.83,2.25,10.18c1.34,4.56,3.23,8.92,5.52,13.1
			c2.64,4.82,5.88,9.26,9.72,13.35c3.49,3.71,7.28,7.05,11.45,10.05c1.46,1.05,3.06,1.88,4.58,2.85c2.1,0.86,4.13,2.06,6.08,3.29
			c0.46,0.12,0.92,0.3,1.4,0.56c2.68,1.45,5.61,2.48,8.59,3.31c1.71,0.47,3.34,1.37,5.24,1.06c0.32-0.47,0.16-1,0.17-1.5
			c0.01-4.31,0.01-8.62,0-12.93c0-0.5,0.16-1.03-0.17-1.5c-2.51-1.02-5.15-1.83-7.51-3.1c-3.06-1.64-6.1-3.36-8.84-5.49
			c-2.77-2.16-5.39-4.47-7.69-7.05c-4.62-5.21-8.24-10.99-10.54-17.47c-1.06-2.98-2.14-5.95-2.34-9.13c-0.3-0.5,0.06-1.09-0.26-1.59
			l-0.06-0.89c-0.31-0.49,0.05-1.09-0.26-1.58c-0.01-2.82,0.03-5.64-0.04-8.46c-0.06-2.25,0.26-4.48,0.75-6.63
			c1.33-5.83,3.3-11.48,6.47-16.7c3.2-5.26,7.1-9.94,12-13.94c6.07-4.95,12.94-8.34,20.58-10.45c3.85-1.06,7.8-1.64,11.79-1.97
			c0.65,0.14,1.31,0.15,1.96,0l0.97-0.1c0.87-0.17,1.75-0.17,2.62,0c1.96,0.08,3.89,0.5,5.86,0.4c0.52,0.28,1.15-0.07,1.67,0.25
			c1.24,0.54,2.6,0.31,3.9,0.6c5.3,1.2,10.42,2.86,15.17,5.36c5.2,2.74,9.85,6.16,13.82,10.42c2.37,2.54,4.51,5.23,6.31,8.14
			c3.02,4.88,5.34,10.01,6.6,15.6c0.71,3.15,1.07,6.31,1.54,9.47c0.27,0.56,0.07,1.16,0.13,1.74c-0.08,1.28,0.16,2.58-0.14,3.86
			c-0.13,1.21-0.16,2.42-0.29,3.63c-0.59,5.3-1.82,10.43-4.1,15.3c-3.49,7.44-8.22,14.03-14.83,19.42
			c-5.6,4.57-11.82,7.99-18.77,10.32c-0.46,0.15-0.92,0.31-0.91,1.03c0.05,5.18,0.03,10.36,0.03,15.59
			c6.16-1.49,11.96-3.51,17.54-6.19c5.73-2.76,10.98-6.14,15.67-10.25c7.16-6.28,12.73-13.67,16.79-22.1
			c3.36-6.97,5.3-14.24,6.18-21.81c0.26-0.82,0.04-1.71,0.42-2.51c0.07-0.34,0.03-0.69,0.04-1.04
			C308.11,98.31,308.11,97.52,308.11,96.73z"/>
		<path class="st0" d="M33.16,100.49c0.59,4.48,1.58,8.86,3.25,13.12c1.67,4.28,3.9,8.26,6.49,12.09c2.3,3.4,5.03,6.52,8.1,9.29
			c5.21,4.7,11.04,8.63,17.83,11.13c0.09,0.03,0.14,0.14,0.21,0.21c0.31,0.4,0.3,0.87,0.3,1.33c0,4.46,0.01,8.92,0,13.39
			c0,0.46,0.04,0.93-0.33,1.31c-1.83,0.21-3.4-0.66-5.03-1.17c-7.83-2.46-14.88-6.35-21.24-11.24
			c-6.45-4.95-11.84-10.83-16.19-17.55c-1.91-2.95-3.6-5.99-5.1-9.13c0.01-0.61-0.08-1.18-0.69-1.55c-1.76-3.98-3-8.12-3.97-12.33
			c-1.27-5.48-1.47-11.03-1.26-16.61c0.21-0.62,0.17-1.25,0.02-1.88c0.47-3.31,0.69-6.64,1.51-9.92c1.18-4.74,2.64-9.36,4.77-13.8
			c4.12-8.55,9.74-16.09,17.03-22.49c4.46-3.91,9.4-7.19,14.73-10.02c4.45-2.36,9.13-4.18,13.95-5.53c4.27-1.2,8.69-2.12,13.2-2.33
			c0.95-0.28,1.98,0.01,2.91-0.38c0.27-0.08,0.55-0.06,0.82-0.06c0.56,0,1.13,0,1.69,0c1.65,0,3.3,0,4.96,0
			c0.58,0.04,1.17-0.1,1.74,0.11c0.32,0.02,0.64,0.05,0.96,0.07c0.63,0.31,1.37-0.07,2,0.25c0.21,0.02,0.42,0.05,0.62,0.07
			c0.52,0.27,1.15-0.07,1.66,0.24c3.5,0.23,6.88,1.04,10.23,1.94c10.54,2.82,20.06,7.46,28.35,14.29c3.01,2.48,5.89,5.06,8.3,8.09
			c0.42,0.53,0.48,0.77-0.04,1.23c-3.71,3.28-7.41,6.59-11.1,9.9c-0.87,0.78-1.2-0.14-1.48-0.51c-1.67-2.14-3.59-4.05-5.64-5.85
			c-4.24-3.73-8.95-6.8-14.19-9.21c-4.01-1.84-8.13-3.36-12.47-4.26c-2.79-0.58-5.66-0.79-8.5-1.17c-1.86-0.19-3.73-0.19-5.59,0
			c-28.37,1.5-49.95,22.09-52.8,48.39c0.16,0.4,0.1,0.82,0.06,1.23c-0.19,0.58-0.1,1.18-0.12,1.77c0,1.5,0,3,0,4.5
			c0.02,0.59-0.07,1.19,0.12,1.78C33.26,99.66,33.32,100.08,33.16,100.49z"/>
		<path class="st1" d="M152.85,95.27c-14.97-0.01-29.95-0.02-44.92-0.02c-0.21-0.09-0.22-0.19-0.01-0.3l-0.05,0.01
			c0.32-0.28,0.72-0.18,1.09-0.18c13.95,0,27.89,0,41.84,0c0.27,0,0.54,0,0.8,0.1c0.43,0.04,0.86,0.08,1.29,0.12
			c0.07,0.07,0.09,0.14,0.06,0.19C152.91,95.24,152.88,95.27,152.85,95.27z"/>
		<path class="st2" d="M151.59,94.87c-8.76,0.02-17.51,0.04-26.27,0.05c-5.82,0.01-11.64,0.02-17.46,0.04
			c0.39-0.52,0.98-0.34,1.5-0.34c13.61-0.01,27.22-0.01,40.83,0C150.67,94.62,151.18,94.5,151.59,94.87z"/>
		<path class="st3" d="M69.33,146.39c0.19-0.12,0.32-0.02,0.32,0.14c0.01,5.23,0.01,10.47,0.01,15.7c0,0.04-0.03,0.12-0.06,0.13
			c-0.09,0.02-0.18,0.02-0.27,0.02c-0.34-1.41-0.15-2.84-0.14-4.25C69.24,154.22,68.98,150.3,69.33,146.39z"/>
		<path class="st0" d="M215.89,162.36c0-5.31,0-10.62-0.01-15.93c0.56,0.14,0.34,0.58,0.34,0.88c0.02,4.78,0.01,9.56,0,14.35
			C216.22,161.91,216.39,162.29,215.89,162.36z"/>
		<path class="st4" d="M69.33,146.39c0,5.33,0,10.66,0,15.99c-0.11-0.01-0.22-0.02-0.33-0.03c0.01-5.34,0.02-10.68,0.04-16.02
			C69.13,146.35,69.23,146.37,69.33,146.39z"/>
		<path class="st5" d="M103.67,149.77c0.2-0.4,0.41-0.8,0.61-1.21c0.52-0.04,0.46,0.33,0.46,0.61c-0.04,4.31,0.12,8.62-0.08,12.93
			c-0.05,0.09-0.05,0.18-0.01,0.27c-0.63-0.41-0.37-1.02-0.37-1.55c-0.02-3.22,0-6.45-0.02-9.67
			C104.24,150.65,104.55,149.97,103.67,149.77z"/>
		<path class="st6" d="M152.85,95.27c0.01-0.09,0.03-0.18,0.04-0.28c0.08-0.03,0.17-0.05,0.26-0.04c0.49,2.24,0.23,4.5,0.14,6.75
			c-0.03,0.3-0.07,0.61-0.1,0.91c-0.05,0.14-0.12,0.16-0.23,0.04C152.92,100.19,152.88,97.73,152.85,95.27z"/>
		<path class="st7" d="M153.27,101.7c-0.05-2.25-0.09-4.5-0.14-6.75c0.68,0.37,0.43,1,0.4,1.51
			C153.43,98.21,153.87,99.98,153.27,101.7z"/>
		<path class="st8" d="M160.68,98.94c-0.45-2.27-0.44-4.54-0.01-6.8c0.3,0.2,0.2,0.49,0.22,0.76c0,1.66,0,3.33,0,4.99
			C160.84,98.25,161.03,98.64,160.68,98.94z"/>
		<path class="st9" d="M85.96,41.59c1.86-0.44,3.73-0.44,5.59,0C89.69,41.58,87.82,41.59,85.96,41.59z"/>
		<path class="st10" d="M91.22,26.49c-1.75,0-3.5-0.01-5.25-0.01c-0.09-0.06-0.12-0.11-0.08-0.16c0.04-0.04,0.07-0.06,0.11-0.06
			c1.73,0.01,3.45,0.01,5.18,0.02C91.19,26.35,91.2,26.42,91.22,26.49z"/>
		<path class="st11" d="M237.13,26.48c-1.75,0-3.5-0.01-5.25-0.01c0.01-0.07,0.02-0.14,0.03-0.21c1.73,0,3.46,0.01,5.19,0.01
			C237.11,26.34,237.12,26.41,237.13,26.48z"/>
		<path class="st12" d="M33.38,92.72c0,1.68,0,3.35-0.01,5.03c-0.2-0.01-0.34-0.11-0.41-0.29c-0.03-1.49-0.04-2.97,0-4.46
			C33.04,92.82,33.17,92.73,33.38,92.72z"/>
		<path class="st13" d="M107.81,99.25l-0.16,0.01c0,0-0.14-0.06-0.14-0.06c0.22-1.41-0.43-2.89,0.4-4.24
			c-0.03,0.1-0.03,0.2,0.01,0.3c-0.01,1.12-0.01,2.25-0.02,3.37C108.02,98.85,108.06,99.07,107.81,99.25z"/>
		<path class="st14" d="M290.61,93.71c-0.07,1.34,0.39,2.71-0.25,4.02c0.01-1.36,0.02-2.71,0.03-4.07
			C290.46,93.68,290.53,93.69,290.61,93.71z"/>
		<path class="st15" d="M152.63,106.95c0.01-0.64-0.31-1.31,0.24-1.88c0.1-0.13,0.21-0.13,0.32-0.01
			C153.08,105.71,153.7,106.55,152.63,106.95z"/>
		<path class="st16" d="M160.79,101.39c1.01,0.6,0.68,1.38,0.33,2.16C161.15,102.81,160.47,102.17,160.79,101.39z"/>
		<path class="st17" d="M33.38,92.72c-0.07,0.02-0.15,0.03-0.22,0.04c-0.06-0.05-0.13-0.1-0.19-0.15c-0.01-0.46-0.12-0.93,0.09-1.39
			c0.03-0.42,0.07-0.83,0.1-1.25C33.79,90.85,33.26,91.81,33.38,92.72z"/>
		<path class="st18" d="M83.72,26.58c-0.96,0.46-1.99,0.24-2.99,0.24c0.58-0.52,1.34-0.15,1.98-0.35
			C83.06,26.38,83.41,26.27,83.72,26.58z"/>
		<path class="st19" d="M229.95,26.57c-0.96,0.48-1.98,0.23-2.99,0.25c0.45-0.54,1.13-0.14,1.66-0.34
			C229.08,26.37,229.53,26.25,229.95,26.57z"/>
		<path class="st20" d="M20.74,121.72c0.94,0.23,1.2,0.74,0.69,1.55C21.2,122.75,20.97,122.24,20.74,121.72z"/>
		<path class="st21" d="M33.15,97.7c0.07,0.01,0.15,0.03,0.22,0.05c-0.1,0.91,0.41,1.86-0.21,2.74c-0.04-0.41-0.07-0.83-0.11-1.24
			c-0.2-0.45-0.1-0.92-0.08-1.38C33.03,97.81,33.09,97.75,33.15,97.7z"/>
		<path class="st22" d="M160.78,92.78c-0.04-0.21-0.07-0.43-0.11-0.64c0.04-0.72,0.08-1.45,0.12-2.17c0.61,0.88,0.14,1.84,0.2,2.76
			C160.96,92.89,160.89,92.9,160.78,92.78z"/>
		<path class="st23" d="M307.65,102.66c0-0.85-0.21-1.71,0.25-2.52c0.33,0.29,0.21,0.62,0.12,0.95
			C307.81,101.59,308.19,102.22,307.65,102.66z"/>
		<path class="st24" d="M232.87,41.88c0.87-0.39,1.75-0.43,2.62,0C234.62,41.88,233.74,41.88,232.87,41.88z"/>
		<path class="st25" d="M160.68,98.94c0.04-0.32,0.07-0.63,0.11-0.95c0.07,0.01,0.15,0.02,0.22,0.03c-0.07,0.82,0.36,1.68-0.22,2.46
			C160.75,99.97,160.72,99.46,160.68,98.94z"/>
		<path class="st26" d="M308,99.25c0-0.82,0.01-1.64,0.01-2.46c0.07-0.01,0.15-0.03,0.22-0.04c0.01,0.82,0.01,1.64,0.02,2.46
			C308.19,99.36,308.1,99.38,308,99.25z"/>
		<path class="st27" d="M308.23,96.75c-0.07,0.01-0.15,0.03-0.22,0.04c0-0.83,0-1.66,0-2.49c0.07,0.01,0.15,0.02,0.22,0.03
			C308.23,95.14,308.23,95.94,308.23,96.75z"/>
		<path class="st28" d="M173.16,144.56c0-0.85,0-1.69,0-2.54C173.65,142.87,173.67,143.72,173.16,144.56z"/>
		<path class="st29" d="M153.2,105.06c-0.11,0-0.22,0.01-0.32,0.01c0.03-0.81,0.05-1.61,0.08-2.42c0.07-0.02,0.15-0.03,0.23-0.04
			C153.18,103.43,153.19,104.24,153.2,105.06z"/>
		<path class="st30" d="M308.23,94.33c-0.07-0.01-0.15-0.02-0.22-0.03c-0.04-0.72-0.08-1.44-0.12-2.16c0.07-0.03,0.13-0.06,0.2-0.09
			c0.05,0.05,0.11,0.09,0.16,0.14C308.24,92.9,308.23,93.61,308.23,94.33z"/>
		<path class="st31" d="M161.11,87.52c0.32,0.69,0.68,1.39-0.33,1.87C160.89,88.77,161,88.15,161.11,87.52z"/>
		<path class="st32" d="M307.58,88.77c-0.5-0.68-0.2-1.45-0.26-2.18C307.93,87.25,307.59,88.03,307.58,88.77z"/>
		<path class="st6" d="M95.8,26.82c-0.68-0.02-1.38,0.19-2-0.25C94.49,26.52,95.19,26.32,95.8,26.82z"/>
		<path class="st33" d="M229.94,41.99c0.65,0,1.31,0,1.96,0C231.24,42.37,230.59,42.39,229.94,41.99z"/>
		<path class="st34" d="M308,99.25c0.08-0.01,0.17-0.02,0.25-0.04c0,0.63,0.23,1.29-0.23,1.88c-0.04-0.32-0.08-0.64-0.12-0.95
			C307.93,99.84,307.97,99.54,308,99.25z"/>
		<path class="st28" d="M307.88,92.13c-0.46-0.58-0.2-1.24-0.24-1.87c0.08,0.02,0.17,0.04,0.25,0.06c0.39,0.59,0.22,1.21,0.12,1.83
			L307.88,92.13z"/>
		<path class="st35" d="M308.02,92.16c-0.04-0.61-0.08-1.22-0.12-1.83c0.67,0.53,0.3,1.22,0.35,1.85
			C308.17,92.17,308.09,92.16,308.02,92.16z"/>
		<path class="st36" d="M15.54,90.9c0.51,0.63,0.33,1.25-0.02,1.88C15.52,92.15,15.53,91.53,15.54,90.9z"/>
		<path class="st37" d="M91.22,26.49c-0.01-0.07-0.03-0.14-0.04-0.21c0.57-0.04,1.16-0.21,1.67,0.21
			C92.3,26.49,91.76,26.49,91.22,26.49z"/>
		<path class="st38" d="M229.95,26.57c-0.44-0.03-0.89-0.06-1.33-0.1c0.51-0.41,1.1-0.23,1.67-0.21c0.09,0.07,0.11,0.12,0.07,0.17
			c-0.04,0.04-0.07,0.06-0.11,0.06C230.15,26.52,230.05,26.55,229.95,26.57z"/>
		<path class="st39" d="M230.25,26.49c0.01-0.08,0.02-0.15,0.04-0.23c0.54,0,1.08,0,1.62,0c-0.01,0.07-0.02,0.14-0.03,0.21
			C231.34,26.48,230.79,26.48,230.25,26.49z"/>
		<path class="st40" d="M237.13,26.48c-0.01-0.07-0.02-0.14-0.04-0.21c0.54,0,1.08-0.01,1.63-0.01c0.1,0.03,0.14,0.08,0.12,0.14
			c-0.02,0.06-0.04,0.09-0.07,0.09C238.23,26.48,237.68,26.48,237.13,26.48z"/>
		<path class="st41" d="M238.77,26.49c-0.01-0.08-0.03-0.15-0.05-0.23c0.56,0.02,1.19-0.26,1.64,0.31c-0.54,0.17-1.08,0.17-1.62,0
			L238.77,26.49z"/>
		<path class="st42" d="M238.74,26.56c0.54,0,1.08,0,1.62,0c0.02,0.08,0.05,0.17,0.07,0.25C239.85,26.8,239.24,27,238.74,26.56z"/>
		<path class="st43" d="M98.09,27.13c-0.57-0.02-1.16,0.17-1.66-0.24C96.99,26.89,97.61,26.6,98.09,27.13z"/>
		<path class="st44" d="M241.35,42.28c0.59-0.08,1.18-0.2,1.67,0.25C242.44,42.58,241.86,42.65,241.35,42.28z"/>
		<path class="st45" d="M178.97,104.19c-0.38-0.49-0.33-1.03-0.26-1.59C179.15,103.08,179.07,103.63,178.97,104.19z"/>
		<path class="st46" d="M290.61,93.71c-0.07-0.02-0.15-0.03-0.22-0.04c-0.01-0.51-0.02-1.02-0.03-1.53
			C290.81,92.61,290.66,93.16,290.61,93.71z"/>
		<path class="st47" d="M83.72,26.58c-0.34-0.04-0.67-0.07-1.01-0.11c0.51-0.39,1.1-0.22,1.66-0.22c0.1,0.06,0.13,0.12,0.09,0.17
			c-0.04,0.04-0.08,0.07-0.11,0.07C84.13,26.51,83.92,26.55,83.72,26.58z"/>
		<path class="st48" d="M84.34,26.48c0.01-0.08,0.02-0.16,0.03-0.23c0.54,0,1.09,0.01,1.63,0.01c-0.01,0.07-0.02,0.14-0.03,0.21
			C85.42,26.48,84.88,26.48,84.34,26.48z"/>
		<path class="st49" d="M178.65,101.71c-0.42-0.48-0.29-1.04-0.26-1.58C178.89,100.6,178.66,101.17,178.65,101.71z"/>
		<path class="st50" d="M133.29,110.38c-7.75-0.02-15.5-0.04-23.25-0.06c-0.7,0-1.41-0.02-2.11-0.03c-0.21-0.08-0.22-0.19-0.04-0.31
			c8.06,0.01,16.13,0.02,24.19,0.06c0.55,0,1.2-0.28,1.64,0.31c-0.04,0.04-0.08,0.07-0.12,0.11
			C133.48,110.48,133.38,110.46,133.29,110.38z"/>
		<path class="st51" d="M104.66,162.1c-0.02-3.99-0.03-7.99-0.08-11.98c-0.01-0.52,0.29-1.13-0.3-1.56
			c-0.03-0.39-0.15-0.82,0.64-1.06c0,1.73,0,3.38,0,5.03c0,2.7,0.01,5.41-0.01,8.11C104.9,161.13,105.08,161.67,104.66,162.1z"/>
		<path class="st52" d="M107.81,99.25c0.03-0.21,0.06-0.42,0.09-0.63c1.41,1.37,3.06,2.36,5.07,2.7c0.83,0.14,1.11,0.71,1.4,1.31
			c-0.14,0.27-0.33,0.45-0.69,0.36c-0.11-0.09-0.21-0.2-0.29-0.31c-0.23-0.55-0.75-0.6-1.26-0.67c-0.14-0.02-0.28-0.06-0.42-0.11
			c-0.69-0.35-1.43-0.6-2.11-0.96c-0.04-0.05-0.09-0.11-0.13-0.16C108.93,100.27,108.22,99.91,107.81,99.25z"/>
		<path class="st53" d="M107.89,109.98c0.01,0.1,0.03,0.21,0.04,0.31c-0.63-0.33-0.39-0.9-0.39-1.37c-0.03-1.98-0.01-3.96-0.02-5.94
			c0.3-0.16,0.42,0.03,0.54,0.24c0.05,0.23,0.03,0.45-0.16,0.63C107.9,105.9,107.89,107.94,107.89,109.98z"/>
		<path class="st54" d="M113.81,102.93c0.19-0.1,0.38-0.2,0.57-0.31c0.29,1.06,0.58,2.13,0.86,3.19c0.11,0.43-0.18,0.65-0.5,0.85
			c-0.05-0.04-0.11-0.08-0.17-0.11c-0.26-0.39-0.19-0.86-0.37-1.28c-0.09-0.24-0.2-0.46-0.31-0.69c-0.06-0.12-0.1-0.24-0.13-0.36
			C113.75,103.79,113.39,103.35,113.81,102.93z"/>
		<path class="st55" d="M161.01,98.02c-0.07-0.01-0.15-0.02-0.22-0.03c0-1.74-0.01-3.48-0.01-5.21c0.07-0.02,0.14-0.04,0.22-0.05
			C161,94.49,161.01,96.26,161.01,98.02z"/>
		<path class="st56" d="M107.9,103.86c0-0.19,0-0.37,0-0.56c1.09-0.09,1.61,0.83,2.43,1.22c0.11,0.1,0.18,0.23,0.22,0.37
			c-0.08,0.22-0.18,0.4-0.46,0.2C109.01,105.24,108.66,104.23,107.9,103.86z"/>
		<path class="st57" d="M113.05,108.44c-1.51,0.86-1.81-0.29-2.24-1.21c0.11-0.07,0.24-0.1,0.38-0.07c0.43,0.18,0.7,0.55,1.08,0.79
			C112.52,108.12,112.83,108.21,113.05,108.44z"/>
		<path class="st58" d="M111.1,107.26c-0.1-0.01-0.2-0.02-0.3-0.03c0,0,0,0.01,0,0.01c-0.44-0.56,0.1-1.28-0.35-1.83
			c-0.12-0.11-0.24-0.21-0.37-0.32c0.11-0.09,0.23-0.17,0.34-0.26c0.47-0.22,0.71,0.06,0.93,0.38
			C111.58,105.93,111.72,106.64,111.1,107.26z"/>
		<path class="st43" d="M133.36,112.49c-0.01-0.2-0.02-0.4-0.03-0.59c0.34-0.49,0-1.07,0.24-1.57c0.05,0.04,0.1,0.05,0.15,0.02
			C134.03,111.13,134.38,111.91,133.36,112.49z"/>
		<path class="st57" d="M114.74,106.66c-0.38,0.56-0.59,1.26-1.38,1.48c-0.17-0.17-0.17-0.38-0.11-0.59
			c0.25-0.43,0.5-0.86,1.02-1.06c0.15-0.02,0.29,0.02,0.41,0.11L114.74,106.66z"/>
		<path class="st57" d="M110.45,105.41c0.67,0.52,0.19,1.23,0.35,1.83C110.19,106.72,110.58,106.02,110.45,105.41z"/>
		<path class="st59" d="M113.43,107.59c-0.02,0.18-0.05,0.37-0.07,0.55c-0.1,0.1-0.21,0.2-0.31,0.3c-0.36,0.03-0.73,0.12-0.96-0.26
			C112.41,107.75,112.75,107.34,113.43,107.59z"/>
		<path class="st60" d="M33.16,92.76c0,1.65,0,3.29,0,4.94l-0.13-0.01c-0.07-0.01-0.14-0.01-0.21-0.02c0-1.63-0.01-3.25-0.01-4.88
			c0.07-0.01,0.14-0.01,0.21-0.02L33.16,92.76z"/>
		<path class="st61" d="M33.02,92.78c-0.07,0-0.14,0.01-0.21,0.02c0-0.53-0.2-1.1,0.25-1.57C33.04,91.74,33.03,92.26,33.02,92.78z"
			/>
		<path class="st62" d="M32.82,97.67c0.07,0.01,0.14,0.02,0.21,0.02c0.01,0.52,0.02,1.04,0.03,1.55
			C32.61,98.77,32.8,98.21,32.82,97.67z"/>
		<path class="st63" d="M133.57,110.33c0.06,0.54,0.31,1.11-0.24,1.57c-0.01-0.5-0.03-1.01-0.04-1.51
			C133.38,110.35,133.47,110.33,133.57,110.33z"/>
		<path class="st64" d="M114.06,104.48c-0.48-1.57-1.78-2.27-3.28-2.76c0.33-0.26,0.65-0.21,0.98-0.01c0.1,0,0.21,0.01,0.31,0.01
			c0.63,0.18,1.34,0.22,1.65,0.91c0.03,0.1,0.06,0.2,0.08,0.31C113.9,103.45,113.98,103.96,114.06,104.48z"/>
		<path class="st65" d="M111.77,101.7c-0.33,0-0.66,0.01-0.98,0.01c-0.64-0.07-1.05-0.4-1.27-0.97
			C110.4,100.78,111.11,101.19,111.77,101.7z"/>
		<path class="st66" d="M113.73,102.63c-0.55-0.3-1.1-0.61-1.65-0.91C112.84,101.69,113.63,101.6,113.73,102.63z"/>
		<path class="st64" d="M114.04,106.31c0-0.62,0.01-1.23,0.01-1.85c0.29,0.1,0.35,0.34,0.39,0.59c0.15,0.4,0.11,0.81,0.04,1.22
			C114.35,106.43,114.2,106.44,114.04,106.31z"/>
		<path class="st67" d="M114.32,106.32c0.04-0.42,0.08-0.84,0.12-1.27c0.43,0.47,0.27,1.01,0.23,1.54c0,0-0.16,0.01-0.16,0.01
			l-0.16-0.01c-0.1-0.05-0.13-0.11-0.11-0.18C114.27,106.35,114.3,106.32,114.32,106.32z"/>
		<path class="st68" d="M114.32,106.32c0.01,0.09,0.02,0.18,0.03,0.27c-0.31,0.33-0.62,0.66-0.92,0.99
			c-0.49,0.12-0.77,0.64-1.34,0.6c-0.33-0.31-0.66-0.62-0.98-0.92c-0.01-0.72-0.03-1.44-0.04-2.15c0.41,0.16,0.6,0.51,0.51,0.86
			c-0.14,0.6-0.25,1.14,0.52,1.4c0.71,0.24,1.1-0.19,1.46-0.67c0.12-0.16,0.33-0.26,0.49-0.39
			C114.14,106.32,114.23,106.32,114.32,106.32z"/>
	</g>
	<g>
		<g>
			<path d="M107.35,98.21c0,2.96,0,5.92,0,8.88c0,1.13,0.78,2.08,1.84,2.41c1.26,0.39,2.51,0.62,3.83,0.38
				c1.23-0.22,2.44-1.1,3.03-2.21c0.7-1.31,0.64-2.87-0.19-4.12c-0.1-0.16-0.22-0.31-0.33-0.46c-0.03-0.05-0.2-0.24-0.19-0.3
				c0-0.01,0.19,0.6,0.13,0.28c0.01,0.03,0.04,0.68,0.06,0.35c0,0.01-0.13,0.67-0.04,0.36c-0.11,0.38-0.34,0.67-0.65,0.9
				c-0.19,0.18-0.42,0.27-0.69,0.27c-0.54,0.08-0.68,0.13-0.41,0.14c1.31,0.1,2.56-1.22,2.5-2.5c-0.06-1.44-1.1-2.39-2.5-2.5
				c-1.48-0.12-2.81,1.12-3.11,2.51c-0.14,0.65-0.16,1.37,0.07,2c0.21,0.57,0.5,0.99,0.83,1.48c0.05,0.08,0.09,0.17,0.15,0.24
				c0.17,0.22-0.17-0.48-0.09-0.22c0.03,0.13,0.03,0.09-0.01-0.14c-0.04-0.14-0.04-0.28,0-0.42c0.07-0.44,0-0.13-0.01-0.03
				c-0.05,0.27,0.23-0.5,0.09-0.26c-0.12,0.22,0.36-0.36,0.16-0.2c-0.38,0.3,0.17-0.04,0.16-0.09c0,0.01-0.23,0.14-0.23,0.14
				c-0.03-0.05,0.61-0.16,0.23-0.11c-0.32,0.05,0.15-0.02,0.21,0c-0.12-0.03-0.55-0.04-0.67-0.01c0.19-0.06,0.51,0.09,0.08-0.01
				c-0.11-0.02-0.22-0.05-0.33-0.08c-0.25-0.07-0.49-0.14-0.74-0.22c0.61,0.8,1.22,1.61,1.84,2.41c0-2.96,0-5.92,0-8.88
				c0-1.31-1.15-2.56-2.5-2.5C108.49,95.77,107.35,96.8,107.35,98.21L107.35,98.21z"/>
		</g>
	</g>
	<g>
		<g>
			<path d="M106.62,97.17c-0.13,3.36-0.53,6.83-0.38,10.19c0.18,4.25,4.68,3.47,7.61,3.42c3.36-0.05,6.73,0.06,10.09,0.26
				c1.72,0.1,3.44,0.22,5.16,0.35c0.82,0.06,1.64,0.13,2.46,0.2c0.49,0.04,0.98,0.08,1.47,0.12c0.16,0.01,0.33,0.03,0.49,0.04
				c0.66,0.08,0.65,0.05-0.02-0.07c-0.3-0.3-0.6-0.6-0.9-0.9c0.28,0.43,0.33,1.36,0.44,1.87c0.17,0.75,0.33,1.5,0.5,2.25
				c0.7,3.14,5.52,1.81,4.82-1.33c-0.55-2.48-0.64-6.22-3.75-6.71c-2.77-0.44-5.66-0.5-8.46-0.69c-2.78-0.19-5.57-0.33-8.36-0.39
				c-1.48-0.03-2.95-0.03-4.43,0c-0.66,0.01-1.31,0.03-1.97,0.06c-0.29,0.01-0.91-0.08-1.13,0.05c-0.24,0.15-0.03-0.24,0.38,0.25
				c0.21,0.37,0.43,0.74,0.64,1.1c-0.05,0.16-0.06,0.14-0.04-0.04c0-0.21,0.01-0.43,0.02-0.64c0.01-0.41,0.03-0.82,0.05-1.24
				c0.03-0.91,0.07-1.81,0.1-2.72c0.07-1.81,0.14-3.63,0.21-5.44C111.74,93.95,106.74,93.96,106.62,97.17L106.62,97.17z"/>
		</g>
	</g>
	<g>
		<g>
			<path d="M109.85,99.76c11.85-0.07,23.71,0.28,35.54,1.06c1.35,0.09,2.5-1.21,2.5-2.5c0-1.43-1.15-2.41-2.5-2.5
				c-11.83-0.78-23.68-1.14-35.54-1.06C106.63,94.78,106.63,99.78,109.85,99.76L109.85,99.76z"/>
		</g>
	</g>
	<g>
		<g>
			<path d="M131.64,99.15c3.22,0,3.22-5,0-5C128.43,94.15,128.42,99.15,131.64,99.15L131.64,99.15z"/>
		</g>
	</g>
	<g>
		<g>
			<path d="M103.43,146.98c0.02,2.33,0.03,4.67,0.05,7c0.01,1.14,0.02,2.29,0.03,3.43c0,0.55,0.01,1.1,0.01,1.65
				c0,0.25,0,0.5-0.01,0.75c-0.02,0.31-0.02,0.33-0.01,0.08c-0.04,0.16-0.09,0.32-0.16,0.47c-0.47,1.22,0.52,2.8,1.75,3.08
				c1.43,0.33,2.57-0.44,3.08-1.75c0.45-1.17,0.36-2.5,0.35-3.73c-0.01-1.24-0.02-2.47-0.03-3.71c-0.02-2.42-0.04-4.85-0.05-7.27
				c-0.01-1.31-1.14-2.56-2.5-2.5C104.58,144.55,103.42,145.58,103.43,146.98L103.43,146.98z"/>
		</g>
	</g>
	<g>
		<g>
			<path d="M162.11,88.73c-2.43,5.08-2.97,10.9-1.3,16.31c0.39,1.25,1.76,2.17,3.08,1.75c1.26-0.41,2.16-1.74,1.75-3.08
				c-0.17-0.55-0.32-1.1-0.44-1.66c-0.07-0.32-0.12-0.64-0.19-0.97c-0.11-0.58,0.01,0.23-0.05-0.31c-0.12-1.19-0.16-2.37-0.08-3.56
				c0.02-0.29,0.05-0.57,0.08-0.86c0.04-0.3,0.04-0.33,0.01-0.07c0.02-0.12,0.04-0.24,0.06-0.36c0.09-0.57,0.21-1.13,0.36-1.68
				c0.14-0.56,0.31-1.11,0.5-1.65c0.1-0.27,0.2-0.54,0.31-0.8c-0.17,0.4,0.21-0.45,0.25-0.53c0.56-1.18,0.36-2.75-0.9-3.42
				C164.41,87.25,162.71,87.47,162.11,88.73L162.11,88.73z"/>
		</g>
	</g>
	<g>
		<g>
			<path d="M162.24,87.44c-0.71,1.93-1.05,4.01-1.06,6.06c1.67,0,3.33,0,5,0c-0.04-0.98-0.08-1.97-0.12-2.95
				c-0.05-1.13,0.08-2.45-0.5-3.46c-0.86-1.49-3.07-2.12-4.35-0.72c-0.91,1-0.86,2.58-0.99,3.87c-0.39,3.86-0.31,7.76,0.18,11.62
				c0.17,1.29,1.03,2.57,2.5,2.5c1.21-0.05,2.68-1.11,2.5-2.5c-0.29-2.23-0.44-4.48-0.43-6.73c0-1.1,0.04-2.2,0.12-3.3
				c0.04-0.53,0.08-1.06,0.13-1.58c0.03-0.26,0.05-0.53,0.09-0.79c0.02-0.18,0.04-0.35,0.06-0.53c-0.03,0.23-0.03,0.19,0.02-0.12
				c-0.38,0.5-0.77,1-1.15,1.49c0.04-0.02,0.08-0.04,0.12-0.05c-0.64,0.08-1.28,0.17-1.93,0.25c0.04,0.01,0.08,0.02,0.11,0.03
				c-0.37-0.21-0.74-0.43-1.1-0.64c-0.13-0.23-0.26-0.47-0.39-0.7c-0.05-0.28-0.06-0.31-0.05-0.1c-0.02,0.17,0.01,0.37,0.02,0.54
				c0.02,0.45,0.04,0.89,0.05,1.34c0.03,0.85,0.07,1.7,0.1,2.55c0.05,1.3,1.11,2.56,2.5,2.5c1.36-0.06,2.49-1.1,2.5-2.5
				c0-0.42,0.01-0.84,0.05-1.25c0-0.02,0.08-0.81,0.02-0.33c0.03-0.21,0.06-0.41,0.1-0.62c0.16-0.86,0.4-1.71,0.7-2.53
				c0.45-1.23-0.5-2.79-1.75-3.08C163.91,85.38,162.72,86.13,162.24,87.44L162.24,87.44z"/>
		</g>
	</g>
	<g>
		<g>
			<path d="M227.91,31.12c3.06,0.14,6.12,0.14,9.17-0.01c1.33-0.06,2.67-0.22,4-0.23c0.25,0,0.5,0.02,0.76,0.02
				c0.31,0.03,0.33,0.03,0.07,0c0.16,0.03,0.32,0.06,0.47,0.1c0.08,0.02,0.73,0.13,0.28,0.08c0.24,0.16,0.27,0.16,0.07,0
				c0.12,0.1,0.24,0.22,0.34,0.34c0.92,0.99,2.6,0.93,3.54,0c0.98-0.98,0.92-2.55,0-3.54c-2.25-2.41-5.57-2.01-8.53-1.83
				c-3.39,0.2-6.78,0.22-10.17,0.07c-1.35-0.06-2.5,1.19-2.5,2.5C225.41,30.03,226.56,31.06,227.91,31.12L227.91,31.12z"/>
		</g>
	</g>
	<g>
		<g>
			<path d="M231.8,42.63c5.93-0.11,12.15-0.51,17.98,0.82c1.32,0.3,2.71-0.4,3.08-1.75c0.35-1.26-0.42-2.77-1.75-3.08
				c-6.29-1.43-12.91-1.12-19.31-1c-1.35,0.03-2.5,1.13-2.5,2.5C229.3,41.46,230.44,42.65,231.8,42.63L231.8,42.63z"/>
		</g>
	</g>
	<g>
		<g>
			<path d="M290.32,91.98c0,0.85-0.04,1.69-0.1,2.53c-0.04,0.45-0.08,0.91-0.13,1.36c-0.01,0.11-0.05,0.77-0.01,0.11
				c-0.01,0.22-0.07,0.45-0.1,0.68c-0.28,1.7-0.69,3.38-1.22,5.02c-0.4,1.24,0.47,2.78,1.75,3.08c1.37,0.31,2.64-0.41,3.08-1.75
				c1.15-3.55,1.73-7.3,1.75-11.03c0.01-1.31-1.15-2.56-2.5-2.5C291.46,89.54,290.33,90.58,290.32,91.98L290.32,91.98z"/>
		</g>
	</g>
	<g>
		<g>
			<path d="M302.59,86.54c0.14,4.71,0.27,9.41,0.41,14.12c0.06,2.07,0.2,4.14-0.4,6.15c-0.61,2.06-1.76,3.91-2.85,5.74
				c-1.66,2.77,2.66,5.28,4.32,2.52c1.25-2.08,2.46-4.2,3.23-6.52c0.74-2.25,0.8-4.58,0.74-6.92c-0.14-5.03-0.29-10.06-0.43-15.09
				C307.49,83.33,302.49,83.31,302.59,86.54L302.59,86.54z"/>
		</g>
	</g>
	<g>
		<g>
			<path d="M173.47,100.98c0.19,0.76,0.36,1.54,0.5,2.31c0.03,0.18,0.06,0.36,0.09,0.54c0.01,0.07,0.11,0.81,0.06,0.39
				c-0.05-0.42,0.04,0.32,0.04,0.39c0.02,0.18,0.04,0.36,0.05,0.54c0.14,1.57,0.16,3.15,0.07,4.73c-0.08,1.31,1.21,2.56,2.5,2.5
				c1.42-0.06,2.41-1.1,2.5-2.5c0.21-3.43-0.15-6.9-0.99-10.23c-0.32-1.27-1.81-2.16-3.08-1.75
				C173.91,98.33,173.12,99.62,173.47,100.98L173.47,100.98z"/>
		</g>
	</g>
	<g>
		<g>
			<path d="M64.18,148.28c-0.01,3.89-0.02,7.78-0.03,11.68c0,1.31,1.15,2.56,2.5,2.5c1.36-0.06,2.5-1.1,2.5-2.5
				c0.01-3.89,0.02-7.78,0.03-11.68c0-1.31-1.15-2.56-2.5-2.5C65.32,145.84,64.18,146.88,64.18,148.28L64.18,148.28z"/>
		</g>
	</g>
</g>
</svg>
